<mxfile host="Electron" agent="Mozilla/5.0 (Windows NT 10.0; Win64; x64) AppleWebKit/537.36 (KHTML, like Gecko) draw.io/26.0.4 Chrome/128.0.6613.186 Electron/32.2.5 Safari/537.36" version="26.0.4" pages="5">
  <diagram name="Breakdown" id="sDGRiHxdlJpr3QSPhySo">
    <mxGraphModel grid="1" page="1" gridSize="10" guides="1" tooltips="1" connect="1" arrows="1" fold="1" pageScale="1" pageWidth="1600" pageHeight="1200" math="0" shadow="0">
      <root>
        <mxCell id="0" />
        <mxCell id="1" parent="0" />
        <mxCell id="9rYevCVTw7yp1UwWzhw_-2" style="edgeStyle=orthogonalEdgeStyle;rounded=0;orthogonalLoop=1;jettySize=auto;html=1;exitX=0.5;exitY=1;exitDx=0;exitDy=0;entryX=0.5;entryY=0;entryDx=0;entryDy=0;endArrow=none;endFill=0;" edge="1" parent="1" target="EWtwLM2XHJTBfBSljlBA-3">
          <mxGeometry relative="1" as="geometry">
            <mxPoint x="540" y="150" as="sourcePoint" />
          </mxGeometry>
        </mxCell>
        <mxCell id="GLyAayF3HU_hsb7kjgZc-3" style="edgeStyle=orthogonalEdgeStyle;rounded=0;orthogonalLoop=1;jettySize=auto;html=1;exitX=0.5;exitY=1;exitDx=0;exitDy=0;entryX=0.5;entryY=0;entryDx=0;entryDy=0;endArrow=none;endFill=0;" edge="1" parent="1" source="AlezJ75LrksbtCUJ--pr-2" target="GLyAayF3HU_hsb7kjgZc-2">
          <mxGeometry relative="1" as="geometry" />
        </mxCell>
        <mxCell id="VLlGjb9V_9rJ5doEfbEv-18" style="rounded=0;orthogonalLoop=1;jettySize=auto;html=1;exitDx=0;exitDy=0;entryX=0.5;entryY=0;entryDx=0;entryDy=0;edgeStyle=orthogonalEdgeStyle;endArrow=none;endFill=0;" edge="1" parent="1" source="GLyAayF3HU_hsb7kjgZc-4" target="VLlGjb9V_9rJ5doEfbEv-17">
          <mxGeometry relative="1" as="geometry" />
        </mxCell>
        <mxCell id="AlezJ75LrksbtCUJ--pr-2" value="&lt;font style=&quot;font-size: 18px;&quot;&gt;變速球&lt;/font&gt;" style="rounded=0;whiteSpace=wrap;html=1;" vertex="1" parent="1">
          <mxGeometry x="480" y="80" width="120" height="40" as="geometry" />
        </mxCell>
        <mxCell id="L1CBUK-vMX6rl3oPqvCh-7" style="edgeStyle=orthogonalEdgeStyle;rounded=0;orthogonalLoop=1;jettySize=auto;html=1;exitX=0.5;exitY=1;exitDx=0;exitDy=0;entryX=0.5;entryY=0;entryDx=0;entryDy=0;endArrow=none;endFill=0;" edge="1" parent="1" source="AlezJ75LrksbtCUJ--pr-6" target="L1CBUK-vMX6rl3oPqvCh-5">
          <mxGeometry relative="1" as="geometry" />
        </mxCell>
        <mxCell id="L1CBUK-vMX6rl3oPqvCh-8" style="edgeStyle=orthogonalEdgeStyle;rounded=0;orthogonalLoop=1;jettySize=auto;html=1;exitX=0.5;exitY=1;exitDx=0;exitDy=0;entryX=0.5;entryY=0;entryDx=0;entryDy=0;endArrow=none;endFill=0;" edge="1" parent="1" source="AlezJ75LrksbtCUJ--pr-6" target="L1CBUK-vMX6rl3oPqvCh-6">
          <mxGeometry relative="1" as="geometry" />
        </mxCell>
        <mxCell id="AlezJ75LrksbtCUJ--pr-6" value="&lt;font style=&quot;font-size: 18px;&quot;&gt;得分&lt;/font&gt;" style="rounded=0;whiteSpace=wrap;html=1;" vertex="1" parent="1">
          <mxGeometry x="840" y="290" width="120" height="40" as="geometry" />
        </mxCell>
        <mxCell id="L1CBUK-vMX6rl3oPqvCh-5" value="&lt;font style=&quot;font-size: 18px;&quot;&gt;左邊&lt;/font&gt;&lt;span style=&quot;font-size: 18px;&quot;&gt;得分&lt;/span&gt;" style="rounded=0;whiteSpace=wrap;html=1;" vertex="1" parent="1">
          <mxGeometry x="760" y="370" width="120" height="40" as="geometry" />
        </mxCell>
        <mxCell id="L1CBUK-vMX6rl3oPqvCh-6" value="&lt;font style=&quot;font-size: 18px;&quot;&gt;右邊&lt;/font&gt;&lt;span style=&quot;font-size: 18px;&quot;&gt;得分&lt;/span&gt;" style="rounded=0;whiteSpace=wrap;html=1;" vertex="1" parent="1">
          <mxGeometry x="920" y="370" width="120" height="40" as="geometry" />
        </mxCell>
        <mxCell id="3x_3hfWbfDDCk6WNT5Y2-3" style="edgeStyle=orthogonalEdgeStyle;rounded=0;orthogonalLoop=1;jettySize=auto;html=1;exitX=0.5;exitY=1;exitDx=0;exitDy=0;entryX=0.5;entryY=0;entryDx=0;entryDy=0;endArrow=none;endFill=0;" edge="1" parent="1" source="L1CBUK-vMX6rl3oPqvCh-9" target="3x_3hfWbfDDCk6WNT5Y2-1">
          <mxGeometry relative="1" as="geometry" />
        </mxCell>
        <mxCell id="3x_3hfWbfDDCk6WNT5Y2-4" style="edgeStyle=orthogonalEdgeStyle;rounded=0;orthogonalLoop=1;jettySize=auto;html=1;exitX=0.5;exitY=1;exitDx=0;exitDy=0;entryX=0.5;entryY=0;entryDx=0;entryDy=0;endArrow=none;endFill=0;" edge="1" parent="1" source="L1CBUK-vMX6rl3oPqvCh-9" target="3x_3hfWbfDDCk6WNT5Y2-2">
          <mxGeometry relative="1" as="geometry" />
        </mxCell>
        <mxCell id="L1CBUK-vMX6rl3oPqvCh-9" value="&lt;font style=&quot;font-size: 18px;&quot;&gt;移動&lt;/font&gt;" style="rounded=0;whiteSpace=wrap;html=1;" vertex="1" parent="1">
          <mxGeometry x="510" y="290" width="120" height="40" as="geometry" />
        </mxCell>
        <mxCell id="9rYevCVTw7yp1UwWzhw_-3" style="edgeStyle=orthogonalEdgeStyle;rounded=0;orthogonalLoop=1;jettySize=auto;html=1;exitX=0.5;exitY=1;exitDx=0;exitDy=0;entryX=0.5;entryY=0;entryDx=0;entryDy=0;endArrow=none;endFill=0;" edge="1" parent="1" source="EWtwLM2XHJTBfBSljlBA-3" target="L1CBUK-vMX6rl3oPqvCh-9">
          <mxGeometry relative="1" as="geometry" />
        </mxCell>
        <mxCell id="9rYevCVTw7yp1UwWzhw_-4" style="edgeStyle=orthogonalEdgeStyle;rounded=0;orthogonalLoop=1;jettySize=auto;html=1;exitDx=0;exitDy=0;entryX=0.5;entryY=0;entryDx=0;entryDy=0;endArrow=none;endFill=0;" edge="1" parent="1" target="AlezJ75LrksbtCUJ--pr-6">
          <mxGeometry relative="1" as="geometry">
            <mxPoint x="570" y="270" as="sourcePoint" />
          </mxGeometry>
        </mxCell>
        <mxCell id="EWtwLM2XHJTBfBSljlBA-3" value="FSM" style="rounded=0;whiteSpace=wrap;html=1;" vertex="1" parent="1">
          <mxGeometry x="580" y="210" width="120" height="40" as="geometry" />
        </mxCell>
        <mxCell id="STP5hXXS6GWsQCYEMc01-10" value="" style="shape=waypoint;sketch=0;size=6;pointerEvents=1;points=[];fillColor=none;resizable=0;rotatable=0;perimeter=centerPerimeter;snapToPoint=1;" vertex="1" parent="1">
          <mxGeometry x="890" y="340" width="20" height="20" as="geometry" />
        </mxCell>
        <mxCell id="9rYevCVTw7yp1UwWzhw_-7" value="" style="edgeStyle=orthogonalEdgeStyle;rounded=0;orthogonalLoop=1;jettySize=auto;html=1;exitX=0.5;exitY=1;exitDx=0;exitDy=0;entryDx=0;entryDy=0;endArrow=none;endFill=0;" edge="1" parent="1" source="EWtwLM2XHJTBfBSljlBA-3" target="9rYevCVTw7yp1UwWzhw_-6">
          <mxGeometry relative="1" as="geometry">
            <mxPoint x="640" y="250" as="sourcePoint" />
            <mxPoint x="800" y="290" as="targetPoint" />
          </mxGeometry>
        </mxCell>
        <mxCell id="9rYevCVTw7yp1UwWzhw_-6" value="" style="shape=waypoint;sketch=0;size=6;pointerEvents=1;points=[];fillColor=none;resizable=0;rotatable=0;perimeter=centerPerimeter;snapToPoint=1;" vertex="1" parent="1">
          <mxGeometry x="630" y="260" width="20" height="20" as="geometry" />
        </mxCell>
        <mxCell id="GLyAayF3HU_hsb7kjgZc-2" value="&lt;span style=&quot;font-size: 18px;&quot;&gt;亂數產生&lt;/span&gt;" style="rounded=0;whiteSpace=wrap;html=1;" vertex="1" parent="1">
          <mxGeometry x="360" y="180" width="120" height="40" as="geometry" />
        </mxCell>
        <mxCell id="VLlGjb9V_9rJ5doEfbEv-17" value="&lt;span style=&quot;font-size: 18px;&quot;&gt;除頻&lt;/span&gt;" style="rounded=0;whiteSpace=wrap;html=1;" vertex="1" parent="1">
          <mxGeometry x="200" y="180" width="120" height="40" as="geometry" />
        </mxCell>
        <mxCell id="VLlGjb9V_9rJ5doEfbEv-19" value="" style="shape=waypoint;sketch=0;size=6;pointerEvents=1;points=[];fillColor=none;resizable=0;rotatable=0;perimeter=centerPerimeter;snapToPoint=1;" vertex="1" parent="1">
          <mxGeometry x="410" y="140" width="20" height="20" as="geometry" />
        </mxCell>
        <mxCell id="3x_3hfWbfDDCk6WNT5Y2-1" value="&lt;span style=&quot;font-size: 18px;&quot;&gt;左移&lt;/span&gt;" style="rounded=0;whiteSpace=wrap;html=1;" vertex="1" parent="1">
          <mxGeometry x="440" y="370" width="120" height="40" as="geometry" />
        </mxCell>
        <mxCell id="3x_3hfWbfDDCk6WNT5Y2-2" value="&lt;span style=&quot;font-size: 18px;&quot;&gt;右移&lt;/span&gt;" style="rounded=0;whiteSpace=wrap;html=1;" vertex="1" parent="1">
          <mxGeometry x="600" y="370" width="120" height="40" as="geometry" />
        </mxCell>
        <mxCell id="3x_3hfWbfDDCk6WNT5Y2-5" value="" style="shape=waypoint;sketch=0;size=6;pointerEvents=1;points=[];fillColor=none;resizable=0;rotatable=0;perimeter=centerPerimeter;snapToPoint=1;" vertex="1" parent="1">
          <mxGeometry x="560" y="340" width="20" height="20" as="geometry" />
        </mxCell>
        <mxCell id="3x_3hfWbfDDCk6WNT5Y2-6" value="" style="rounded=0;orthogonalLoop=1;jettySize=auto;html=1;exitX=0.5;exitY=1;exitDx=0;exitDy=0;entryDx=0;entryDy=0;edgeStyle=orthogonalEdgeStyle;endArrow=none;endFill=0;" edge="1" parent="1" source="AlezJ75LrksbtCUJ--pr-2" target="GLyAayF3HU_hsb7kjgZc-4">
          <mxGeometry relative="1" as="geometry">
            <mxPoint x="540" y="120" as="sourcePoint" />
            <mxPoint x="260" y="180" as="targetPoint" />
          </mxGeometry>
        </mxCell>
        <mxCell id="GLyAayF3HU_hsb7kjgZc-4" value="" style="shape=waypoint;sketch=0;size=6;pointerEvents=1;points=[];fillColor=none;resizable=0;rotatable=0;perimeter=centerPerimeter;snapToPoint=1;" vertex="1" parent="1">
          <mxGeometry x="530" y="140" width="20" height="20" as="geometry" />
        </mxCell>
      </root>
    </mxGraphModel>
  </diagram>
  <diagram id="OVdBWIHF8a1dPWj94JBt" name="AOV">
    <mxGraphModel dx="1313" dy="836" grid="1" gridSize="10" guides="1" tooltips="1" connect="1" arrows="1" fold="1" page="1" pageScale="1" pageWidth="1600" pageHeight="1200" math="0" shadow="0">
      <root>
        <mxCell id="0" />
        <mxCell id="1" parent="0" />
        <mxCell id="Q595Dopr3mldXKllN7cr-5" value="&lt;span style=&quot;font-size: 18px;&quot;&gt;移動&lt;/span&gt;" style="ellipse;whiteSpace=wrap;html=1;aspect=fixed;fillColor=#d5e8d4;strokeColor=#82b366;" vertex="1" parent="1">
          <mxGeometry x="200" y="370" width="80" height="80" as="geometry" />
        </mxCell>
        <mxCell id="Q595Dopr3mldXKllN7cr-6" value="" style="shape=curlyBracket;whiteSpace=wrap;html=1;rounded=1;labelPosition=left;verticalLabelPosition=middle;align=right;verticalAlign=middle;fillColor=#d5e8d4;strokeColor=#82b366;" vertex="1" parent="1">
          <mxGeometry x="350" y="350" width="20" height="120" as="geometry" />
        </mxCell>
        <mxCell id="Q595Dopr3mldXKllN7cr-7" value="&lt;font style=&quot;font-size: 23px;&quot;&gt;=&lt;/font&gt;" style="text;html=1;align=center;verticalAlign=middle;resizable=0;points=[];autosize=1;strokeColor=none;fillColor=none;" vertex="1" parent="1">
          <mxGeometry x="295" y="390" width="40" height="40" as="geometry" />
        </mxCell>
        <mxCell id="NGaMm3PS3TmotU0q8Ze6-27" style="edgeStyle=orthogonalEdgeStyle;rounded=0;orthogonalLoop=1;jettySize=auto;html=1;exitX=1;exitY=0.5;exitDx=0;exitDy=0;entryX=0;entryY=0.5;entryDx=0;entryDy=0;" edge="1" parent="1" target="NGaMm3PS3TmotU0q8Ze6-17">
          <mxGeometry relative="1" as="geometry">
            <mxPoint x="260" y="225" as="sourcePoint" />
          </mxGeometry>
        </mxCell>
        <mxCell id="LkxkRoHrR2OIO_0Z7d39-3" style="edgeStyle=orthogonalEdgeStyle;rounded=0;orthogonalLoop=1;jettySize=auto;html=1;exitX=1;exitY=0.5;exitDx=0;exitDy=0;entryX=0;entryY=0.5;entryDx=0;entryDy=0;" edge="1" parent="1" source="Q595Dopr3mldXKllN7cr-10" target="LkxkRoHrR2OIO_0Z7d39-1">
          <mxGeometry relative="1" as="geometry" />
        </mxCell>
        <mxCell id="Q595Dopr3mldXKllN7cr-10" value="&lt;span style=&quot;font-size: 18px;&quot;&gt;移動0&lt;/span&gt;" style="ellipse;whiteSpace=wrap;html=1;aspect=fixed;fillColor=#fff2cc;strokeColor=#d6b656;" vertex="1" parent="1">
          <mxGeometry x="400" y="370" width="80" height="80" as="geometry" />
        </mxCell>
        <mxCell id="NGaMm3PS3TmotU0q8Ze6-2" value="&lt;font style=&quot;font-size: 18px;&quot;&gt;start&lt;/font&gt;" style="ellipse;whiteSpace=wrap;html=1;aspect=fixed;fillColor=#fff2cc;strokeColor=#d6b656;" vertex="1" parent="1">
          <mxGeometry x="200" y="180" width="80" height="80" as="geometry" />
        </mxCell>
        <mxCell id="NGaMm3PS3TmotU0q8Ze6-5" value="&lt;font style=&quot;font-size: 18px;&quot;&gt;end&lt;/font&gt;" style="ellipse;whiteSpace=wrap;html=1;aspect=fixed;fillColor=#fff2cc;strokeColor=#d6b656;" vertex="1" parent="1">
          <mxGeometry x="820" y="185" width="80" height="80" as="geometry" />
        </mxCell>
        <mxCell id="NGaMm3PS3TmotU0q8Ze6-30" style="rounded=0;orthogonalLoop=1;jettySize=auto;html=1;exitX=1;exitY=0.5;exitDx=0;exitDy=0;entryX=0;entryY=0.5;entryDx=0;entryDy=0;" edge="1" parent="1" source="NGaMm3PS3TmotU0q8Ze6-17" target="NGaMm3PS3TmotU0q8Ze6-28">
          <mxGeometry relative="1" as="geometry" />
        </mxCell>
        <mxCell id="NGaMm3PS3TmotU0q8Ze6-17" value="&lt;span style=&quot;font-size: 18px;&quot;&gt;初始&lt;/span&gt;" style="ellipse;whiteSpace=wrap;html=1;aspect=fixed;fillColor=#d5e8d4;strokeColor=#82b366;" vertex="1" parent="1">
          <mxGeometry x="340" y="185" width="80" height="80" as="geometry" />
        </mxCell>
        <mxCell id="NGaMm3PS3TmotU0q8Ze6-19" value="0" style="text;html=1;align=center;verticalAlign=middle;resizable=0;points=[];autosize=1;strokeColor=none;fillColor=none;" vertex="1" parent="1">
          <mxGeometry x="280" y="195" width="30" height="30" as="geometry" />
        </mxCell>
        <mxCell id="NGaMm3PS3TmotU0q8Ze6-23" style="edgeStyle=orthogonalEdgeStyle;rounded=0;orthogonalLoop=1;jettySize=auto;html=1;exitX=1;exitY=0.5;exitDx=0;exitDy=0;entryX=0;entryY=0.5;entryDx=0;entryDy=0;" edge="1" parent="1" source="NGaMm3PS3TmotU0q8Ze6-24">
          <mxGeometry relative="1" as="geometry">
            <mxPoint x="820" y="225" as="targetPoint" />
          </mxGeometry>
        </mxCell>
        <mxCell id="NGaMm3PS3TmotU0q8Ze6-24" value="&lt;span style=&quot;font-size: 18px;&quot;&gt;得分&lt;/span&gt;" style="ellipse;whiteSpace=wrap;html=1;aspect=fixed;fillColor=#d5e8d4;strokeColor=#82b366;" vertex="1" parent="1">
          <mxGeometry x="660" y="185" width="80" height="80" as="geometry" />
        </mxCell>
        <mxCell id="NGaMm3PS3TmotU0q8Ze6-26" value="1" style="text;html=1;align=center;verticalAlign=middle;resizable=0;points=[];autosize=1;strokeColor=none;fillColor=none;" vertex="1" parent="1">
          <mxGeometry x="755" y="183" width="30" height="30" as="geometry" />
        </mxCell>
        <mxCell id="NGaMm3PS3TmotU0q8Ze6-32" style="rounded=0;orthogonalLoop=1;jettySize=auto;html=1;exitX=1;exitY=0.5;exitDx=0;exitDy=0;entryX=0;entryY=0.5;entryDx=0;entryDy=0;" edge="1" parent="1" source="NGaMm3PS3TmotU0q8Ze6-28" target="NGaMm3PS3TmotU0q8Ze6-24">
          <mxGeometry relative="1" as="geometry" />
        </mxCell>
        <mxCell id="NGaMm3PS3TmotU0q8Ze6-28" value="&lt;span style=&quot;font-size: 18px;&quot;&gt;移動&lt;/span&gt;" style="ellipse;whiteSpace=wrap;html=1;aspect=fixed;fillColor=#d5e8d4;strokeColor=#82b366;" vertex="1" parent="1">
          <mxGeometry x="490" y="185" width="80" height="80" as="geometry" />
        </mxCell>
        <mxCell id="NGaMm3PS3TmotU0q8Ze6-34" value="1" style="text;html=1;align=center;verticalAlign=middle;resizable=0;points=[];autosize=1;strokeColor=none;fillColor=none;" vertex="1" parent="1">
          <mxGeometry x="430" y="195" width="30" height="30" as="geometry" />
        </mxCell>
        <mxCell id="fjt6JNwTKqc81tr4xaa--1" value="D" style="text;html=1;align=center;verticalAlign=middle;resizable=0;points=[];autosize=1;strokeColor=none;fillColor=none;" vertex="1" parent="1">
          <mxGeometry x="595" y="195" width="30" height="30" as="geometry" />
        </mxCell>
        <mxCell id="LkxkRoHrR2OIO_0Z7d39-4" style="edgeStyle=orthogonalEdgeStyle;rounded=0;orthogonalLoop=1;jettySize=auto;html=1;exitX=1;exitY=0.5;exitDx=0;exitDy=0;entryX=0;entryY=0.5;entryDx=0;entryDy=0;" edge="1" parent="1" source="LkxkRoHrR2OIO_0Z7d39-1" target="LkxkRoHrR2OIO_0Z7d39-2">
          <mxGeometry relative="1" as="geometry" />
        </mxCell>
        <mxCell id="LkxkRoHrR2OIO_0Z7d39-1" value="&lt;span style=&quot;font-size: 18px;&quot;&gt;左移&lt;/span&gt;" style="ellipse;whiteSpace=wrap;html=1;aspect=fixed;fillColor=#d5e8d4;strokeColor=#82b366;" vertex="1" parent="1">
          <mxGeometry x="545" y="370" width="80" height="80" as="geometry" />
        </mxCell>
        <mxCell id="LkxkRoHrR2OIO_0Z7d39-5" style="edgeStyle=orthogonalEdgeStyle;rounded=0;orthogonalLoop=1;jettySize=auto;html=1;exitX=1;exitY=0.5;exitDx=0;exitDy=0;" edge="1" parent="1" source="LkxkRoHrR2OIO_0Z7d39-2">
          <mxGeometry relative="1" as="geometry">
            <mxPoint x="830" y="410.18181818181813" as="targetPoint" />
          </mxGeometry>
        </mxCell>
        <mxCell id="LkxkRoHrR2OIO_0Z7d39-2" value="&lt;span style=&quot;font-size: 18px;&quot;&gt;右移&lt;/span&gt;" style="ellipse;whiteSpace=wrap;html=1;aspect=fixed;fillColor=#d5e8d4;strokeColor=#82b366;" vertex="1" parent="1">
          <mxGeometry x="690" y="370" width="80" height="80" as="geometry" />
        </mxCell>
        <mxCell id="LkxkRoHrR2OIO_0Z7d39-6" value="D" style="text;html=1;align=center;verticalAlign=middle;resizable=0;points=[];autosize=1;strokeColor=none;fillColor=none;" vertex="1" parent="1">
          <mxGeometry x="640" y="380" width="30" height="30" as="geometry" />
        </mxCell>
        <mxCell id="LkxkRoHrR2OIO_0Z7d39-7" value="D" style="text;html=1;align=center;verticalAlign=middle;resizable=0;points=[];autosize=1;strokeColor=none;fillColor=none;" vertex="1" parent="1">
          <mxGeometry x="785" y="380" width="30" height="30" as="geometry" />
        </mxCell>
        <mxCell id="LkxkRoHrR2OIO_0Z7d39-8" value="0" style="text;html=1;align=center;verticalAlign=middle;resizable=0;points=[];autosize=1;strokeColor=none;fillColor=none;" vertex="1" parent="1">
          <mxGeometry x="490" y="380" width="30" height="30" as="geometry" />
        </mxCell>
      </root>
    </mxGraphModel>
  </diagram>
  <diagram id="gEWoI7JKNx2qh0vyL0tT" name="MSC">
    <mxGraphModel dx="1050" dy="669" grid="1" gridSize="10" guides="1" tooltips="1" connect="1" arrows="1" fold="1" page="1" pageScale="1" pageWidth="3300" pageHeight="2339" math="0" shadow="0">
      <root>
        <mxCell id="0" />
        <mxCell id="1" parent="0" />
        <mxCell id="opVG9PjYU6sqSWWcNXAr-2" value="&lt;font style=&quot;font-size: 18px;&quot;&gt;FSM&lt;/font&gt;" style="rounded=0;whiteSpace=wrap;html=1;labelBorderColor=none;" vertex="1" parent="1">
          <mxGeometry x="120" y="200" width="120" height="40" as="geometry" />
        </mxCell>
        <mxCell id="opVG9PjYU6sqSWWcNXAr-3" value="&lt;span style=&quot;font-size: 18px;&quot;&gt;Move left/right&lt;/span&gt;" style="rounded=0;whiteSpace=wrap;html=1;labelBorderColor=none;" vertex="1" parent="1">
          <mxGeometry x="120" y="280" width="120" height="40" as="geometry" />
        </mxCell>
        <mxCell id="opVG9PjYU6sqSWWcNXAr-4" value="&lt;span style=&quot;font-size: 18px;&quot;&gt;left score&lt;/span&gt;" style="rounded=0;whiteSpace=wrap;html=1;labelBorderColor=none;" vertex="1" parent="1">
          <mxGeometry x="120" y="360" width="120" height="40" as="geometry" />
        </mxCell>
        <mxCell id="opVG9PjYU6sqSWWcNXAr-5" value="&lt;span style=&quot;font-size: 18px;&quot;&gt;right score&lt;/span&gt;" style="rounded=0;whiteSpace=wrap;html=1;labelBorderColor=none;" vertex="1" parent="1">
          <mxGeometry x="120" y="440" width="120" height="40" as="geometry" />
        </mxCell>
        <mxCell id="opVG9PjYU6sqSWWcNXAr-6" value="" style="rounded=0;orthogonalLoop=1;jettySize=auto;html=1;exitX=1;exitY=0.5;exitDx=0;exitDy=0;endArrow=none;endFill=0;dashed=1;strokeColor=#999999;" edge="1" parent="1">
          <mxGeometry relative="1" as="geometry">
            <mxPoint x="240" y="180" as="targetPoint" />
            <mxPoint x="240" y="180" as="sourcePoint" />
          </mxGeometry>
        </mxCell>
        <mxCell id="opVG9PjYU6sqSWWcNXAr-7" style="rounded=0;orthogonalLoop=1;jettySize=auto;html=1;exitX=1;exitY=0.5;exitDx=0;exitDy=0;entryX=1;entryY=0.5;entryDx=0;entryDy=0;" edge="1" parent="1" source="opVG9PjYU6sqSWWcNXAr-9" target="opVG9PjYU6sqSWWcNXAr-24">
          <mxGeometry relative="1" as="geometry" />
        </mxCell>
        <mxCell id="opVG9PjYU6sqSWWcNXAr-8" value="左移" style="edgeLabel;html=1;align=center;verticalAlign=middle;resizable=0;points=[];fontColor=#FF0000;" vertex="1" connectable="0" parent="opVG9PjYU6sqSWWcNXAr-7">
          <mxGeometry x="0.0345" y="-1" relative="1" as="geometry">
            <mxPoint x="11" as="offset" />
          </mxGeometry>
        </mxCell>
        <mxCell id="AsbSiKQNmMKBUFi-fQQv-1" style="rounded=0;orthogonalLoop=1;jettySize=auto;html=1;exitX=0;exitY=0.5;exitDx=0;exitDy=0;entryX=0;entryY=0.5;entryDx=0;entryDy=0;" edge="1" parent="1" source="opVG9PjYU6sqSWWcNXAr-16" target="FoI4G-2ULA1pQsx0RLYE-15">
          <mxGeometry relative="1" as="geometry">
            <mxPoint x="320" y="200" as="sourcePoint" />
          </mxGeometry>
        </mxCell>
        <mxCell id="opVG9PjYU6sqSWWcNXAr-9" value="state0" style="shape=hexagon;perimeter=hexagonPerimeter2;whiteSpace=wrap;html=1;fixedSize=1;" vertex="1" parent="1">
          <mxGeometry x="240" y="200" width="80" height="40" as="geometry" />
        </mxCell>
        <mxCell id="opVG9PjYU6sqSWWcNXAr-10" value="" style="rounded=0;orthogonalLoop=1;jettySize=auto;html=1;exitX=1;exitY=0.5;exitDx=0;exitDy=0;endArrow=none;endFill=0;dashed=1;strokeColor=#999999;" edge="1" parent="1" source="opVG9PjYU6sqSWWcNXAr-3" target="opVG9PjYU6sqSWWcNXAr-11">
          <mxGeometry relative="1" as="geometry">
            <mxPoint x="890" y="300" as="targetPoint" />
            <mxPoint x="200" y="300" as="sourcePoint" />
          </mxGeometry>
        </mxCell>
        <mxCell id="opVG9PjYU6sqSWWcNXAr-11" value="00000001" style="shape=hexagon;perimeter=hexagonPerimeter2;whiteSpace=wrap;html=1;fixedSize=1;" vertex="1" parent="1">
          <mxGeometry x="320" y="280" width="100" height="40" as="geometry" />
        </mxCell>
        <mxCell id="opVG9PjYU6sqSWWcNXAr-12" value="" style="rounded=0;orthogonalLoop=1;jettySize=auto;html=1;exitX=1;exitY=0.5;exitDx=0;exitDy=0;endArrow=none;endFill=0;dashed=1;strokeColor=#999999;" edge="1" parent="1">
          <mxGeometry relative="1" as="geometry">
            <mxPoint x="440" y="300" as="targetPoint" />
            <mxPoint x="440" y="300" as="sourcePoint" />
          </mxGeometry>
        </mxCell>
        <mxCell id="opVG9PjYU6sqSWWcNXAr-16" value="移動" style="shape=hexagon;perimeter=hexagonPerimeter2;whiteSpace=wrap;html=1;fixedSize=1;" vertex="1" parent="1">
          <mxGeometry x="320" y="200" width="400" height="40" as="geometry" />
        </mxCell>
        <mxCell id="opVG9PjYU6sqSWWcNXAr-17" value="" style="rounded=0;orthogonalLoop=1;jettySize=auto;html=1;exitX=1;exitY=0.5;exitDx=0;exitDy=0;endArrow=none;endFill=0;dashed=1;strokeColor=#999999;" edge="1" parent="1" source="opVG9PjYU6sqSWWcNXAr-4" target="opVG9PjYU6sqSWWcNXAr-19">
          <mxGeometry relative="1" as="geometry">
            <mxPoint x="890" y="380" as="targetPoint" />
            <mxPoint x="200" y="380" as="sourcePoint" />
          </mxGeometry>
        </mxCell>
        <mxCell id="opVG9PjYU6sqSWWcNXAr-18" style="edgeStyle=orthogonalEdgeStyle;rounded=0;orthogonalLoop=1;jettySize=auto;html=1;exitX=1;exitY=0.5;exitDx=0;exitDy=0;entryX=0;entryY=0.5;entryDx=0;entryDy=0;" edge="1" parent="1" source="opVG9PjYU6sqSWWcNXAr-19" target="opVG9PjYU6sqSWWcNXAr-22">
          <mxGeometry relative="1" as="geometry" />
        </mxCell>
        <mxCell id="opVG9PjYU6sqSWWcNXAr-19" value="0000" style="shape=hexagon;perimeter=hexagonPerimeter2;whiteSpace=wrap;html=1;fixedSize=1;" vertex="1" parent="1">
          <mxGeometry x="240" y="360" width="80" height="40" as="geometry" />
        </mxCell>
        <mxCell id="opVG9PjYU6sqSWWcNXAr-22" value="0001" style="shape=hexagon;perimeter=hexagonPerimeter2;whiteSpace=wrap;html=1;fixedSize=1;" vertex="1" parent="1">
          <mxGeometry x="720" y="360" width="40" height="40" as="geometry" />
        </mxCell>
        <mxCell id="opVG9PjYU6sqSWWcNXAr-24" value="00000000" style="shape=hexagon;perimeter=hexagonPerimeter2;whiteSpace=wrap;html=1;fixedSize=1;" vertex="1" parent="1">
          <mxGeometry x="240" y="280" width="80" height="40" as="geometry" />
        </mxCell>
        <mxCell id="opVG9PjYU6sqSWWcNXAr-25" style="rounded=0;orthogonalLoop=1;jettySize=auto;html=1;exitX=0;exitY=0.5;exitDx=0;exitDy=0;entryX=0;entryY=0.5;entryDx=0;entryDy=0;" edge="1" parent="1" source="opVG9PjYU6sqSWWcNXAr-27" target="opVG9PjYU6sqSWWcNXAr-22">
          <mxGeometry relative="1" as="geometry" />
        </mxCell>
        <mxCell id="opVG9PjYU6sqSWWcNXAr-27" value="得分" style="shape=hexagon;perimeter=hexagonPerimeter2;whiteSpace=wrap;html=1;fixedSize=1;size=200;" vertex="1" parent="1">
          <mxGeometry x="720" y="200" width="40" height="40" as="geometry" />
        </mxCell>
        <mxCell id="opVG9PjYU6sqSWWcNXAr-62" value="0" style="shape=hexagon;perimeter=hexagonPerimeter2;whiteSpace=wrap;html=1;fixedSize=1;" vertex="1" parent="1">
          <mxGeometry x="240" y="40" width="80" height="40" as="geometry" />
        </mxCell>
        <mxCell id="opVG9PjYU6sqSWWcNXAr-63" value="5" style="shape=hexagon;perimeter=hexagonPerimeter2;whiteSpace=wrap;html=1;fixedSize=1;" vertex="1" parent="1">
          <mxGeometry x="320" y="40" width="100" height="40" as="geometry" />
        </mxCell>
        <mxCell id="opVG9PjYU6sqSWWcNXAr-64" value="1" style="shape=hexagon;perimeter=hexagonPerimeter2;whiteSpace=wrap;html=1;fixedSize=1;size=40;" vertex="1" parent="1">
          <mxGeometry x="720" y="40" width="40" height="40" as="geometry" />
        </mxCell>
        <mxCell id="opVG9PjYU6sqSWWcNXAr-65" value="2" style="shape=hexagon;perimeter=hexagonPerimeter2;whiteSpace=wrap;html=1;fixedSize=1;" vertex="1" parent="1">
          <mxGeometry x="420" y="40" width="50" height="40" as="geometry" />
        </mxCell>
        <mxCell id="opVG9PjYU6sqSWWcNXAr-72" value="&lt;font style=&quot;font-size: 26px;&quot;&gt;≈&lt;/font&gt;" style="shape=hexagon;perimeter=hexagonPerimeter2;whiteSpace=wrap;html=1;fixedSize=1;size=10;" vertex="1" parent="1">
          <mxGeometry x="760" y="40" width="40" height="40" as="geometry" />
        </mxCell>
        <mxCell id="opVG9PjYU6sqSWWcNXAr-73" style="rounded=0;orthogonalLoop=1;jettySize=auto;html=1;exitX=1;exitY=0.5;exitDx=0;exitDy=0;entryX=0;entryY=0.5;entryDx=0;entryDy=0;endArrow=none;endFill=0;dashed=1;strokeColor=#999999;" edge="1" parent="1" source="opVG9PjYU6sqSWWcNXAr-74" target="opVG9PjYU6sqSWWcNXAr-62">
          <mxGeometry relative="1" as="geometry" />
        </mxCell>
        <mxCell id="opVG9PjYU6sqSWWcNXAr-74" value="&lt;span style=&quot;font-size: 18px;&quot;&gt;clk&lt;/span&gt;" style="rounded=0;whiteSpace=wrap;html=1;labelBorderColor=none;fontColor=default;labelBackgroundColor=none;strokeColor=none;" vertex="1" parent="1">
          <mxGeometry x="120" y="40" width="120" height="40" as="geometry" />
        </mxCell>
        <mxCell id="opVG9PjYU6sqSWWcNXAr-78" value="&lt;font style=&quot;font-size: 26px;&quot;&gt;≈&lt;/font&gt;" style="shape=hexagon;perimeter=hexagonPerimeter2;whiteSpace=wrap;html=1;fixedSize=1;size=10;" vertex="1" parent="1">
          <mxGeometry x="760" y="280" width="40" height="40" as="geometry" />
        </mxCell>
        <mxCell id="opVG9PjYU6sqSWWcNXAr-80" value="&lt;font style=&quot;font-size: 26px;&quot;&gt;≈&lt;/font&gt;" style="shape=hexagon;perimeter=hexagonPerimeter2;whiteSpace=wrap;html=1;fixedSize=1;size=10;" vertex="1" parent="1">
          <mxGeometry x="760" y="360" width="40" height="40" as="geometry" />
        </mxCell>
        <mxCell id="opVG9PjYU6sqSWWcNXAr-81" value="&lt;font style=&quot;font-size: 26px;&quot;&gt;≈&lt;/font&gt;" style="shape=hexagon;perimeter=hexagonPerimeter2;whiteSpace=wrap;html=1;fixedSize=1;size=10;" vertex="1" parent="1">
          <mxGeometry x="760" y="440" width="40" height="40" as="geometry" />
        </mxCell>
        <mxCell id="FoI4G-2ULA1pQsx0RLYE-24" style="edgeStyle=orthogonalEdgeStyle;rounded=0;orthogonalLoop=1;jettySize=auto;html=1;exitX=1;exitY=0.5;exitDx=0;exitDy=0;entryX=0;entryY=0.5;entryDx=0;entryDy=0;" edge="1" parent="1" source="opVG9PjYU6sqSWWcNXAr-83" target="opVG9PjYU6sqSWWcNXAr-81">
          <mxGeometry relative="1" as="geometry" />
        </mxCell>
        <mxCell id="opVG9PjYU6sqSWWcNXAr-83" value="0000" style="shape=hexagon;perimeter=hexagonPerimeter2;whiteSpace=wrap;html=1;fixedSize=1;" vertex="1" parent="1">
          <mxGeometry x="240" y="440" width="80" height="40" as="geometry" />
        </mxCell>
        <mxCell id="opVG9PjYU6sqSWWcNXAr-84" value="加1分" style="text;html=1;align=center;verticalAlign=middle;resizable=0;points=[];autosize=1;strokeColor=none;fillColor=none;" vertex="1" parent="1">
          <mxGeometry x="670" y="330" width="50" height="30" as="geometry" />
        </mxCell>
        <mxCell id="opVG9PjYU6sqSWWcNXAr-86" style="rounded=0;orthogonalLoop=1;jettySize=auto;html=1;exitX=1;exitY=0.5;exitDx=0;exitDy=0;entryX=1;entryY=0.5;entryDx=0;entryDy=0;strokeColor=#FF0000;" edge="1" parent="1" source="opVG9PjYU6sqSWWcNXAr-88" target="opVG9PjYU6sqSWWcNXAr-16">
          <mxGeometry relative="1" as="geometry" />
        </mxCell>
        <mxCell id="opVG9PjYU6sqSWWcNXAr-89" value="沒打" style="text;html=1;align=center;verticalAlign=middle;resizable=0;points=[];autosize=1;strokeColor=none;fillColor=none;fontColor=#FF0000;" vertex="1" parent="1">
          <mxGeometry x="670" y="240" width="50" height="30" as="geometry" />
        </mxCell>
        <mxCell id="opVG9PjYU6sqSWWcNXAr-125" value="&lt;font style=&quot;font-size: 26px;&quot;&gt;≈&lt;/font&gt;" style="shape=hexagon;perimeter=hexagonPerimeter2;whiteSpace=wrap;html=1;fixedSize=1;size=10;" vertex="1" parent="1">
          <mxGeometry x="760" y="200" width="40" height="40" as="geometry" />
        </mxCell>
        <mxCell id="FoI4G-2ULA1pQsx0RLYE-25" style="edgeStyle=orthogonalEdgeStyle;rounded=0;orthogonalLoop=1;jettySize=auto;html=1;entryX=0;entryY=0.5;entryDx=0;entryDy=0;" edge="1" parent="1" source="opVG9PjYU6sqSWWcNXAr-88" target="opVG9PjYU6sqSWWcNXAr-78">
          <mxGeometry relative="1" as="geometry" />
        </mxCell>
        <mxCell id="opVG9PjYU6sqSWWcNXAr-88" value="10000000" style="shape=hexagon;perimeter=hexagonPerimeter2;whiteSpace=wrap;html=1;fixedSize=1;" vertex="1" parent="1">
          <mxGeometry x="670" y="280" width="50" height="40" as="geometry" />
        </mxCell>
        <mxCell id="FoI4G-2ULA1pQsx0RLYE-6" value="3" style="shape=hexagon;perimeter=hexagonPerimeter2;whiteSpace=wrap;html=1;fixedSize=1;" vertex="1" parent="1">
          <mxGeometry x="470" y="40" width="100" height="40" as="geometry" />
        </mxCell>
        <mxCell id="FoI4G-2ULA1pQsx0RLYE-7" value="00000010" style="shape=hexagon;perimeter=hexagonPerimeter2;whiteSpace=wrap;html=1;fixedSize=1;" vertex="1" parent="1">
          <mxGeometry x="420" y="280" width="50" height="40" as="geometry" />
        </mxCell>
        <mxCell id="FoI4G-2ULA1pQsx0RLYE-9" value="00000100" style="shape=hexagon;perimeter=hexagonPerimeter2;whiteSpace=wrap;html=1;fixedSize=1;" vertex="1" parent="1">
          <mxGeometry x="470" y="280" width="100" height="40" as="geometry" />
        </mxCell>
        <mxCell id="FoI4G-2ULA1pQsx0RLYE-10" value="4" style="shape=hexagon;perimeter=hexagonPerimeter2;whiteSpace=wrap;html=1;fixedSize=1;" vertex="1" parent="1">
          <mxGeometry x="570" y="40" width="150" height="40" as="geometry" />
        </mxCell>
        <mxCell id="FoI4G-2ULA1pQsx0RLYE-12" value="00001000" style="shape=hexagon;perimeter=hexagonPerimeter2;whiteSpace=wrap;html=1;fixedSize=1;" vertex="1" parent="1">
          <mxGeometry x="570" y="280" width="100" height="40" as="geometry" />
        </mxCell>
        <mxCell id="FoI4G-2ULA1pQsx0RLYE-13" value="&lt;span style=&quot;font-size: 18px;&quot;&gt;random&lt;/span&gt;" style="rounded=0;whiteSpace=wrap;html=1;labelBorderColor=none;" vertex="1" parent="1">
          <mxGeometry x="120" y="120" width="120" height="40" as="geometry" />
        </mxCell>
        <mxCell id="FoI4G-2ULA1pQsx0RLYE-14" value="3" style="shape=hexagon;perimeter=hexagonPerimeter2;whiteSpace=wrap;html=1;fixedSize=1;" vertex="1" parent="1">
          <mxGeometry x="240" y="120" width="80" height="40" as="geometry" />
        </mxCell>
        <mxCell id="AsbSiKQNmMKBUFi-fQQv-3" style="rounded=0;orthogonalLoop=1;jettySize=auto;html=1;exitX=0;exitY=0.5;exitDx=0;exitDy=0;entryX=1;entryY=0.5;entryDx=0;entryDy=0;strokeColor=#FF0000;" edge="1" parent="1" source="FoI4G-2ULA1pQsx0RLYE-15" target="opVG9PjYU6sqSWWcNXAr-24">
          <mxGeometry relative="1" as="geometry" />
        </mxCell>
        <mxCell id="FoI4G-2ULA1pQsx0RLYE-15" value="6" style="shape=hexagon;perimeter=hexagonPerimeter2;whiteSpace=wrap;html=1;fixedSize=1;" vertex="1" parent="1">
          <mxGeometry x="320" y="120" width="100" height="40" as="geometry" />
        </mxCell>
        <mxCell id="FoI4G-2ULA1pQsx0RLYE-16" value="2" style="shape=hexagon;perimeter=hexagonPerimeter2;whiteSpace=wrap;html=1;fixedSize=1;" vertex="1" parent="1">
          <mxGeometry x="420" y="120" width="50" height="40" as="geometry" />
        </mxCell>
        <mxCell id="FoI4G-2ULA1pQsx0RLYE-17" value="5" style="shape=hexagon;perimeter=hexagonPerimeter2;whiteSpace=wrap;html=1;fixedSize=1;" vertex="1" parent="1">
          <mxGeometry x="470" y="120" width="100" height="40" as="geometry" />
        </mxCell>
        <mxCell id="FoI4G-2ULA1pQsx0RLYE-23" style="edgeStyle=orthogonalEdgeStyle;rounded=0;orthogonalLoop=1;jettySize=auto;html=1;exitX=1;exitY=0.5;exitDx=0;exitDy=0;entryX=0;entryY=0.5;entryDx=0;entryDy=0;" edge="1" parent="1" source="FoI4G-2ULA1pQsx0RLYE-18" target="FoI4G-2ULA1pQsx0RLYE-21">
          <mxGeometry relative="1" as="geometry" />
        </mxCell>
        <mxCell id="FoI4G-2ULA1pQsx0RLYE-18" value="8" style="shape=hexagon;perimeter=hexagonPerimeter2;whiteSpace=wrap;html=1;fixedSize=1;" vertex="1" parent="1">
          <mxGeometry x="570" y="120" width="150" height="40" as="geometry" />
        </mxCell>
        <mxCell id="FoI4G-2ULA1pQsx0RLYE-21" value="&lt;font style=&quot;font-size: 26px;&quot;&gt;≈&lt;/font&gt;" style="shape=hexagon;perimeter=hexagonPerimeter2;whiteSpace=wrap;html=1;fixedSize=1;size=10;" vertex="1" parent="1">
          <mxGeometry x="760" y="120" width="40" height="40" as="geometry" />
        </mxCell>
        <mxCell id="FoI4G-2ULA1pQsx0RLYE-22" style="edgeStyle=orthogonalEdgeStyle;rounded=0;orthogonalLoop=1;jettySize=auto;html=1;exitX=0;exitY=0.5;exitDx=0;exitDy=0;entryX=0.25;entryY=0.496;entryDx=0;entryDy=0;entryPerimeter=0;" edge="1" parent="1" source="opVG9PjYU6sqSWWcNXAr-72" target="opVG9PjYU6sqSWWcNXAr-72">
          <mxGeometry relative="1" as="geometry" />
        </mxCell>
        <mxCell id="AsbSiKQNmMKBUFi-fQQv-2" value="產生亂數" style="text;html=1;align=center;verticalAlign=middle;resizable=0;points=[];autosize=1;strokeColor=none;fillColor=none;" vertex="1" parent="1">
          <mxGeometry x="320" y="170" width="70" height="30" as="geometry" />
        </mxCell>
      </root>
    </mxGraphModel>
  </diagram>
  <diagram id="uL6mSfalg0e5q1glWinD" name="架構圖">
    <mxGraphModel dx="1105" dy="704" grid="1" gridSize="10" guides="1" tooltips="1" connect="1" arrows="1" fold="1" page="1" pageScale="1" pageWidth="1600" pageHeight="1200" math="0" shadow="0">
      <root>
        <mxCell id="0" />
        <mxCell id="1" parent="0" />
        <mxCell id="jX1KVdBvWtZQA1iF6uPX-4" style="edgeStyle=orthogonalEdgeStyle;rounded=0;orthogonalLoop=1;jettySize=auto;html=1;exitX=1;exitY=0.5;exitDx=0;exitDy=0;entryX=0;entryY=0.5;entryDx=0;entryDy=0;" parent="1" source="2JFabkGBRO_lSnkMbjO8-2" target="TTBIErPZMyxIEzA5yBpW-1" edge="1">
          <mxGeometry relative="1" as="geometry" />
        </mxCell>
        <mxCell id="jX1KVdBvWtZQA1iF6uPX-5" style="edgeStyle=orthogonalEdgeStyle;rounded=0;orthogonalLoop=1;jettySize=auto;html=1;exitX=1;exitY=0.5;exitDx=0;exitDy=0;entryX=0;entryY=0.5;entryDx=0;entryDy=0;" parent="1" source="2JFabkGBRO_lSnkMbjO8-2" target="TTBIErPZMyxIEzA5yBpW-2" edge="1">
          <mxGeometry relative="1" as="geometry" />
        </mxCell>
        <mxCell id="jX1KVdBvWtZQA1iF6uPX-7" style="edgeStyle=orthogonalEdgeStyle;rounded=0;orthogonalLoop=1;jettySize=auto;html=1;exitDx=0;exitDy=0;entryX=0;entryY=0.5;entryDx=0;entryDy=0;" parent="1" source="jX1KVdBvWtZQA1iF6uPX-8" target="TTBIErPZMyxIEzA5yBpW-9" edge="1">
          <mxGeometry relative="1" as="geometry" />
        </mxCell>
        <mxCell id="WYx9C1buDWOBvDWNYKW7-36" style="edgeStyle=orthogonalEdgeStyle;rounded=0;orthogonalLoop=1;jettySize=auto;html=1;exitX=0;exitY=0;exitDx=0;exitDy=0;entryX=0.75;entryY=0;entryDx=0;entryDy=0;" edge="1" parent="1" source="2JFabkGBRO_lSnkMbjO8-2" target="WYx9C1buDWOBvDWNYKW7-2">
          <mxGeometry relative="1" as="geometry" />
        </mxCell>
        <mxCell id="2JFabkGBRO_lSnkMbjO8-2" value="&lt;font style=&quot;font-size: 18px;&quot;&gt;FSM&lt;/font&gt;" style="rounded=0;whiteSpace=wrap;html=1;container=0;" parent="1" vertex="1">
          <mxGeometry x="760" y="200" width="80" height="160" as="geometry" />
        </mxCell>
        <mxCell id="2JFabkGBRO_lSnkMbjO8-3" value="" style="triangle;whiteSpace=wrap;html=1;rotation=-90;" parent="1" vertex="1">
          <mxGeometry x="782.5" y="327.5" width="30" height="35" as="geometry" />
        </mxCell>
        <mxCell id="2JFabkGBRO_lSnkMbjO8-5" value="&lt;font style=&quot;font-size: 18px;&quot;&gt;output&lt;/font&gt;" style="text;html=1;align=center;verticalAlign=middle;resizable=0;points=[];autosize=1;strokeColor=none;fillColor=none;" parent="1" vertex="1">
          <mxGeometry x="1240" y="260" width="70" height="40" as="geometry" />
        </mxCell>
        <mxCell id="jX1KVdBvWtZQA1iF6uPX-13" style="edgeStyle=orthogonalEdgeStyle;rounded=0;orthogonalLoop=1;jettySize=auto;html=1;exitX=1;exitY=0.5;exitDx=0;exitDy=0;entryX=0.5;entryY=0;entryDx=0;entryDy=0;" parent="1" source="TTBIErPZMyxIEzA5yBpW-1" target="jX1KVdBvWtZQA1iF6uPX-11" edge="1">
          <mxGeometry relative="1" as="geometry" />
        </mxCell>
        <mxCell id="TTBIErPZMyxIEzA5yBpW-1" value="&lt;span style=&quot;font-size: 18px;&quot;&gt;Move left/right&lt;/span&gt;" style="rounded=0;whiteSpace=wrap;html=1;" parent="1" vertex="1">
          <mxGeometry x="920" y="140" width="120" height="60" as="geometry" />
        </mxCell>
        <mxCell id="jX1KVdBvWtZQA1iF6uPX-12" style="edgeStyle=orthogonalEdgeStyle;rounded=0;orthogonalLoop=1;jettySize=auto;html=1;exitX=1;exitY=0.5;exitDx=0;exitDy=0;entryX=0.5;entryY=1;entryDx=0;entryDy=0;" parent="1" source="TTBIErPZMyxIEzA5yBpW-2" target="jX1KVdBvWtZQA1iF6uPX-11" edge="1">
          <mxGeometry relative="1" as="geometry" />
        </mxCell>
        <mxCell id="TTBIErPZMyxIEzA5yBpW-2" value="&lt;font style=&quot;font-size: 18px;&quot;&gt;right score&lt;/font&gt;" style="rounded=0;whiteSpace=wrap;html=1;" parent="1" vertex="1">
          <mxGeometry x="920" y="360" width="120" height="60" as="geometry" />
        </mxCell>
        <mxCell id="TTBIErPZMyxIEzA5yBpW-6" value="state" style="text;html=1;align=center;verticalAlign=middle;resizable=0;points=[];autosize=1;strokeColor=none;fillColor=none;" parent="1" vertex="1">
          <mxGeometry x="870" y="250" width="50" height="30" as="geometry" />
        </mxCell>
        <mxCell id="jX1KVdBvWtZQA1iF6uPX-15" style="edgeStyle=orthogonalEdgeStyle;rounded=0;orthogonalLoop=1;jettySize=auto;html=1;exitX=1;exitY=0.5;exitDx=0;exitDy=0;entryX=0;entryY=0.5;entryDx=0;entryDy=0;" parent="1" source="TTBIErPZMyxIEzA5yBpW-9" target="jX1KVdBvWtZQA1iF6uPX-11" edge="1">
          <mxGeometry relative="1" as="geometry" />
        </mxCell>
        <mxCell id="TTBIErPZMyxIEzA5yBpW-9" value="&lt;span style=&quot;font-size: 18px;&quot;&gt;left score&lt;/span&gt;" style="rounded=0;whiteSpace=wrap;html=1;" parent="1" vertex="1">
          <mxGeometry x="920" y="250" width="120" height="60" as="geometry" />
        </mxCell>
        <mxCell id="d2EjSb7bTRUchnsIYD_G-2" value="i_btn_r" style="text;html=1;align=center;verticalAlign=middle;resizable=0;points=[];autosize=1;strokeColor=none;fillColor=none;" parent="1" vertex="1">
          <mxGeometry x="640" y="220" width="60" height="30" as="geometry" />
        </mxCell>
        <mxCell id="d2EjSb7bTRUchnsIYD_G-3" value="i_btn_l" style="text;html=1;align=center;verticalAlign=middle;resizable=0;points=[];autosize=1;strokeColor=none;fillColor=none;" parent="1" vertex="1">
          <mxGeometry x="640" y="310" width="60" height="30" as="geometry" />
        </mxCell>
        <mxCell id="jX1KVdBvWtZQA1iF6uPX-2" style="edgeStyle=orthogonalEdgeStyle;rounded=0;orthogonalLoop=1;jettySize=auto;html=1;entryX=0;entryY=0.781;entryDx=0;entryDy=0;entryPerimeter=0;" parent="1" source="d2EjSb7bTRUchnsIYD_G-3" target="2JFabkGBRO_lSnkMbjO8-2" edge="1">
          <mxGeometry relative="1" as="geometry" />
        </mxCell>
        <mxCell id="jX1KVdBvWtZQA1iF6uPX-3" style="edgeStyle=orthogonalEdgeStyle;rounded=0;orthogonalLoop=1;jettySize=auto;html=1;entryX=-0.012;entryY=0.222;entryDx=0;entryDy=0;entryPerimeter=0;" parent="1" source="d2EjSb7bTRUchnsIYD_G-2" target="2JFabkGBRO_lSnkMbjO8-2" edge="1">
          <mxGeometry relative="1" as="geometry" />
        </mxCell>
        <mxCell id="jX1KVdBvWtZQA1iF6uPX-9" value="" style="edgeStyle=orthogonalEdgeStyle;rounded=0;orthogonalLoop=1;jettySize=auto;html=1;exitX=1;exitY=0.5;exitDx=0;exitDy=0;entryDx=0;entryDy=0;endArrow=none;endFill=0;" parent="1" source="2JFabkGBRO_lSnkMbjO8-2" target="jX1KVdBvWtZQA1iF6uPX-8" edge="1">
          <mxGeometry relative="1" as="geometry">
            <mxPoint x="840" y="280" as="sourcePoint" />
            <mxPoint x="920" y="280" as="targetPoint" />
          </mxGeometry>
        </mxCell>
        <mxCell id="jX1KVdBvWtZQA1iF6uPX-8" value="" style="shape=waypoint;sketch=0;size=6;pointerEvents=1;points=[];fillColor=none;resizable=0;rotatable=0;perimeter=centerPerimeter;snapToPoint=1;" parent="1" vertex="1">
          <mxGeometry x="870" y="270" width="20" height="20" as="geometry" />
        </mxCell>
        <mxCell id="jX1KVdBvWtZQA1iF6uPX-14" style="edgeStyle=orthogonalEdgeStyle;rounded=0;orthogonalLoop=1;jettySize=auto;html=1;exitX=1;exitY=0.5;exitDx=0;exitDy=0;" parent="1" source="jX1KVdBvWtZQA1iF6uPX-11" target="2JFabkGBRO_lSnkMbjO8-5" edge="1">
          <mxGeometry relative="1" as="geometry" />
        </mxCell>
        <mxCell id="jX1KVdBvWtZQA1iF6uPX-11" value="&lt;font style=&quot;font-size: 18px;&quot;&gt;o_led display&lt;/font&gt;" style="rounded=0;whiteSpace=wrap;html=1;" parent="1" vertex="1">
          <mxGeometry x="1080" y="250" width="120" height="60" as="geometry" />
        </mxCell>
        <mxCell id="WYx9C1buDWOBvDWNYKW7-37" style="edgeStyle=orthogonalEdgeStyle;rounded=0;orthogonalLoop=1;jettySize=auto;html=1;exitX=1;exitY=0.5;exitDx=0;exitDy=0;entryX=0;entryY=0.5;entryDx=0;entryDy=0;" edge="1" parent="1" source="WYx9C1buDWOBvDWNYKW7-1" target="WYx9C1buDWOBvDWNYKW7-2">
          <mxGeometry relative="1" as="geometry" />
        </mxCell>
        <mxCell id="WYx9C1buDWOBvDWNYKW7-40" style="edgeStyle=orthogonalEdgeStyle;rounded=0;orthogonalLoop=1;jettySize=auto;html=1;exitX=0.75;exitY=0;exitDx=0;exitDy=0;entryX=0.25;entryY=0;entryDx=0;entryDy=0;" edge="1" parent="1" source="WYx9C1buDWOBvDWNYKW7-1" target="TTBIErPZMyxIEzA5yBpW-1">
          <mxGeometry relative="1" as="geometry" />
        </mxCell>
        <mxCell id="WYx9C1buDWOBvDWNYKW7-1" value="&lt;span style=&quot;font-size: 18px;&quot;&gt;clk_div&lt;/span&gt;" style="rounded=0;whiteSpace=wrap;html=1;" vertex="1" parent="1">
          <mxGeometry x="240" y="240" width="120" height="60" as="geometry" />
        </mxCell>
        <mxCell id="WYx9C1buDWOBvDWNYKW7-3" style="edgeStyle=orthogonalEdgeStyle;rounded=0;orthogonalLoop=1;jettySize=auto;html=1;exitX=0.5;exitY=1;exitDx=0;exitDy=0;entryX=0.5;entryY=1;entryDx=0;entryDy=0;" edge="1" parent="1" source="WYx9C1buDWOBvDWNYKW7-2" target="WYx9C1buDWOBvDWNYKW7-1">
          <mxGeometry relative="1" as="geometry" />
        </mxCell>
        <mxCell id="WYx9C1buDWOBvDWNYKW7-2" value="&lt;font style=&quot;font-size: 18px;&quot;&gt;random&lt;/font&gt;" style="rounded=0;whiteSpace=wrap;html=1;" vertex="1" parent="1">
          <mxGeometry x="440" y="240" width="120" height="60" as="geometry" />
        </mxCell>
        <mxCell id="WYx9C1buDWOBvDWNYKW7-4" value="rang_dice" style="text;html=1;align=center;verticalAlign=middle;resizable=0;points=[];autosize=1;strokeColor=none;fillColor=none;" vertex="1" parent="1">
          <mxGeometry x="350" y="328" width="80" height="30" as="geometry" />
        </mxCell>
        <mxCell id="WYx9C1buDWOBvDWNYKW7-33" style="edgeStyle=orthogonalEdgeStyle;rounded=0;orthogonalLoop=1;jettySize=auto;html=1;" edge="1" parent="1" source="WYx9C1buDWOBvDWNYKW7-5">
          <mxGeometry relative="1" as="geometry">
            <mxPoint x="240" y="250" as="targetPoint" />
          </mxGeometry>
        </mxCell>
        <mxCell id="WYx9C1buDWOBvDWNYKW7-5" value="i_clk" style="text;html=1;align=center;verticalAlign=middle;resizable=0;points=[];autosize=1;strokeColor=none;fillColor=none;" vertex="1" parent="1">
          <mxGeometry x="160" y="235" width="50" height="30" as="geometry" />
        </mxCell>
        <mxCell id="WYx9C1buDWOBvDWNYKW7-8" style="edgeStyle=orthogonalEdgeStyle;rounded=0;orthogonalLoop=1;jettySize=auto;html=1;entryX=0;entryY=0.75;entryDx=0;entryDy=0;" edge="1" parent="1">
          <mxGeometry relative="1" as="geometry">
            <mxPoint x="210" y="280" as="sourcePoint" />
            <mxPoint x="240" y="280" as="targetPoint" />
          </mxGeometry>
        </mxCell>
        <mxCell id="WYx9C1buDWOBvDWNYKW7-9" style="edgeStyle=orthogonalEdgeStyle;rounded=0;orthogonalLoop=1;jettySize=auto;html=1;" edge="1" parent="1" source="WYx9C1buDWOBvDWNYKW7-27">
          <mxGeometry relative="1" as="geometry">
            <mxPoint x="920" y="410" as="targetPoint" />
            <mxPoint x="220" y="285" as="sourcePoint" />
            <Array as="points">
              <mxPoint x="220" y="410" />
              <mxPoint x="920" y="410" />
            </Array>
          </mxGeometry>
        </mxCell>
        <mxCell id="WYx9C1buDWOBvDWNYKW7-6" value="i_rst" style="text;html=1;align=center;verticalAlign=middle;resizable=0;points=[];autosize=1;strokeColor=none;fillColor=none;" vertex="1" parent="1">
          <mxGeometry x="160" y="265" width="50" height="30" as="geometry" />
        </mxCell>
        <mxCell id="WYx9C1buDWOBvDWNYKW7-7" style="edgeStyle=orthogonalEdgeStyle;rounded=0;orthogonalLoop=1;jettySize=auto;html=1;entryX=-0.024;entryY=0.253;entryDx=0;entryDy=0;entryPerimeter=0;" edge="1" parent="1" source="WYx9C1buDWOBvDWNYKW7-34">
          <mxGeometry relative="1" as="geometry">
            <mxPoint x="220" y="250" as="sourcePoint" />
            <mxPoint x="240.00000000000006" y="250.18" as="targetPoint" />
          </mxGeometry>
        </mxCell>
        <mxCell id="WYx9C1buDWOBvDWNYKW7-12" value="" style="endArrow=classic;html=1;rounded=0;entryX=0.25;entryY=1;entryDx=0;entryDy=0;" edge="1" parent="1">
          <mxGeometry width="50" height="50" relative="1" as="geometry">
            <mxPoint x="520" y="410" as="sourcePoint" />
            <mxPoint x="520" y="300" as="targetPoint" />
          </mxGeometry>
        </mxCell>
        <mxCell id="WYx9C1buDWOBvDWNYKW7-14" value="" style="endArrow=classic;html=1;rounded=0;entryX=0;entryY=0.75;entryDx=0;entryDy=0;" edge="1" parent="1" source="WYx9C1buDWOBvDWNYKW7-16" target="TTBIErPZMyxIEzA5yBpW-9">
          <mxGeometry width="50" height="50" relative="1" as="geometry">
            <mxPoint x="860" y="410" as="sourcePoint" />
            <mxPoint x="905" y="360" as="targetPoint" />
            <Array as="points">
              <mxPoint x="860" y="295" />
            </Array>
          </mxGeometry>
        </mxCell>
        <mxCell id="WYx9C1buDWOBvDWNYKW7-15" value="" style="endArrow=classic;html=1;rounded=0;entryX=0;entryY=0.75;entryDx=0;entryDy=0;" edge="1" parent="1" target="TTBIErPZMyxIEzA5yBpW-1">
          <mxGeometry width="50" height="50" relative="1" as="geometry">
            <mxPoint x="860" y="295" as="sourcePoint" />
            <mxPoint x="910" y="245" as="targetPoint" />
            <Array as="points">
              <mxPoint x="860" y="185" />
            </Array>
          </mxGeometry>
        </mxCell>
        <mxCell id="WYx9C1buDWOBvDWNYKW7-17" value="" style="endArrow=none;html=1;rounded=0;entryDx=0;entryDy=0;endFill=0;" edge="1" parent="1" target="WYx9C1buDWOBvDWNYKW7-16">
          <mxGeometry width="50" height="50" relative="1" as="geometry">
            <mxPoint x="860" y="410" as="sourcePoint" />
            <mxPoint x="920" y="295" as="targetPoint" />
            <Array as="points">
              <mxPoint x="860" y="360" />
              <mxPoint x="860" y="330" />
            </Array>
          </mxGeometry>
        </mxCell>
        <mxCell id="WYx9C1buDWOBvDWNYKW7-16" value="" style="shape=waypoint;sketch=0;size=6;pointerEvents=1;points=[];fillColor=none;resizable=0;rotatable=0;perimeter=centerPerimeter;snapToPoint=1;" vertex="1" parent="1">
          <mxGeometry x="850" y="285" width="20" height="20" as="geometry" />
        </mxCell>
        <mxCell id="WYx9C1buDWOBvDWNYKW7-18" value="" style="shape=waypoint;sketch=0;size=6;pointerEvents=1;points=[];fillColor=none;resizable=0;rotatable=0;perimeter=centerPerimeter;snapToPoint=1;" vertex="1" parent="1">
          <mxGeometry x="510" y="400" width="20" height="20" as="geometry" />
        </mxCell>
        <mxCell id="WYx9C1buDWOBvDWNYKW7-21" value="" style="edgeStyle=orthogonalEdgeStyle;rounded=0;orthogonalLoop=1;jettySize=auto;html=1;endArrow=none;endFill=0;" edge="1" parent="1" source="WYx9C1buDWOBvDWNYKW7-18">
          <mxGeometry relative="1" as="geometry">
            <mxPoint x="270" y="410" as="targetPoint" />
            <mxPoint x="520" y="410" as="sourcePoint" />
            <Array as="points" />
          </mxGeometry>
        </mxCell>
        <mxCell id="WYx9C1buDWOBvDWNYKW7-22" value="" style="shape=waypoint;sketch=0;size=6;pointerEvents=1;points=[];fillColor=none;resizable=0;rotatable=0;perimeter=centerPerimeter;snapToPoint=1;" vertex="1" parent="1">
          <mxGeometry x="850" y="400" width="20" height="20" as="geometry" />
        </mxCell>
        <mxCell id="WYx9C1buDWOBvDWNYKW7-23" value="" style="endArrow=none;html=1;rounded=0;" edge="1" parent="1" source="WYx9C1buDWOBvDWNYKW7-24">
          <mxGeometry width="50" height="50" relative="1" as="geometry">
            <mxPoint x="220" y="410" as="sourcePoint" />
            <mxPoint x="220" y="280" as="targetPoint" />
          </mxGeometry>
        </mxCell>
        <mxCell id="WYx9C1buDWOBvDWNYKW7-25" value="" style="endArrow=none;html=1;rounded=0;" edge="1" parent="1" target="WYx9C1buDWOBvDWNYKW7-24">
          <mxGeometry width="50" height="50" relative="1" as="geometry">
            <mxPoint x="220" y="410" as="sourcePoint" />
            <mxPoint x="220" y="280" as="targetPoint" />
          </mxGeometry>
        </mxCell>
        <mxCell id="WYx9C1buDWOBvDWNYKW7-24" value="" style="shape=waypoint;sketch=0;size=6;pointerEvents=1;points=[];fillColor=none;resizable=0;rotatable=0;perimeter=centerPerimeter;snapToPoint=1;" vertex="1" parent="1">
          <mxGeometry x="210" y="270" width="20" height="20" as="geometry" />
        </mxCell>
        <mxCell id="WYx9C1buDWOBvDWNYKW7-28" value="" style="edgeStyle=orthogonalEdgeStyle;rounded=0;orthogonalLoop=1;jettySize=auto;html=1;endArrow=none;endFill=0;" edge="1" parent="1" target="WYx9C1buDWOBvDWNYKW7-27">
          <mxGeometry relative="1" as="geometry">
            <mxPoint x="920" y="410" as="targetPoint" />
            <mxPoint x="270" y="410" as="sourcePoint" />
            <Array as="points" />
          </mxGeometry>
        </mxCell>
        <mxCell id="WYx9C1buDWOBvDWNYKW7-29" style="edgeStyle=orthogonalEdgeStyle;rounded=0;orthogonalLoop=1;jettySize=auto;html=1;entryX=0;entryY=1;entryDx=0;entryDy=0;" edge="1" parent="1" source="WYx9C1buDWOBvDWNYKW7-27" target="2JFabkGBRO_lSnkMbjO8-2">
          <mxGeometry relative="1" as="geometry">
            <Array as="points">
              <mxPoint x="730" y="360" />
            </Array>
          </mxGeometry>
        </mxCell>
        <mxCell id="WYx9C1buDWOBvDWNYKW7-27" value="" style="shape=waypoint;sketch=0;size=6;pointerEvents=1;points=[];fillColor=none;resizable=0;rotatable=0;perimeter=centerPerimeter;snapToPoint=1;" vertex="1" parent="1">
          <mxGeometry x="720" y="400" width="20" height="20" as="geometry" />
        </mxCell>
        <mxCell id="WYx9C1buDWOBvDWNYKW7-32" style="edgeStyle=orthogonalEdgeStyle;rounded=0;orthogonalLoop=1;jettySize=auto;html=1;entryX=0.25;entryY=0;entryDx=0;entryDy=0;" edge="1" parent="1" target="2JFabkGBRO_lSnkMbjO8-2">
          <mxGeometry relative="1" as="geometry">
            <mxPoint x="240" y="210" as="targetPoint" />
            <mxPoint x="220" y="250" as="sourcePoint" />
            <Array as="points">
              <mxPoint x="220" y="160" />
              <mxPoint x="780" y="160" />
            </Array>
          </mxGeometry>
        </mxCell>
        <mxCell id="WYx9C1buDWOBvDWNYKW7-35" value="" style="edgeStyle=orthogonalEdgeStyle;rounded=0;orthogonalLoop=1;jettySize=auto;html=1;entryDx=0;entryDy=0;entryPerimeter=0;" edge="1" parent="1" target="WYx9C1buDWOBvDWNYKW7-34">
          <mxGeometry relative="1" as="geometry">
            <mxPoint x="220" y="250" as="sourcePoint" />
            <mxPoint x="240.00000000000006" y="250.18" as="targetPoint" />
          </mxGeometry>
        </mxCell>
        <mxCell id="WYx9C1buDWOBvDWNYKW7-34" value="" style="shape=waypoint;sketch=0;size=6;pointerEvents=1;points=[];fillColor=none;resizable=0;rotatable=0;perimeter=centerPerimeter;snapToPoint=1;" vertex="1" parent="1">
          <mxGeometry x="210" y="240" width="20" height="20" as="geometry" />
        </mxCell>
        <mxCell id="WYx9C1buDWOBvDWNYKW7-38" value="clk_ball" style="text;html=1;align=center;verticalAlign=middle;resizable=0;points=[];autosize=1;strokeColor=none;fillColor=none;" vertex="1" parent="1">
          <mxGeometry x="600" y="178" width="60" height="30" as="geometry" />
        </mxCell>
        <mxCell id="WYx9C1buDWOBvDWNYKW7-39" value="clk_div" style="text;html=1;align=center;verticalAlign=middle;resizable=0;points=[];autosize=1;strokeColor=none;fillColor=none;" vertex="1" parent="1">
          <mxGeometry x="360" y="240" width="60" height="30" as="geometry" />
        </mxCell>
        <mxCell id="WYx9C1buDWOBvDWNYKW7-42" style="edgeStyle=orthogonalEdgeStyle;rounded=0;orthogonalLoop=1;jettySize=auto;html=1;entryX=0;entryY=0;entryDx=0;entryDy=0;" edge="1" parent="1" source="WYx9C1buDWOBvDWNYKW7-43" target="TTBIErPZMyxIEzA5yBpW-9">
          <mxGeometry relative="1" as="geometry">
            <Array as="points">
              <mxPoint x="870" y="250" />
            </Array>
          </mxGeometry>
        </mxCell>
        <mxCell id="WYx9C1buDWOBvDWNYKW7-41" value="" style="shape=waypoint;sketch=0;size=6;pointerEvents=1;points=[];fillColor=none;resizable=0;rotatable=0;perimeter=centerPerimeter;snapToPoint=1;" vertex="1" parent="1">
          <mxGeometry x="860" y="110" width="20" height="20" as="geometry" />
        </mxCell>
        <mxCell id="WYx9C1buDWOBvDWNYKW7-44" value="" style="edgeStyle=orthogonalEdgeStyle;rounded=0;orthogonalLoop=1;jettySize=auto;html=1;entryDx=0;entryDy=0;endArrow=none;endFill=0;" edge="1" parent="1" source="WYx9C1buDWOBvDWNYKW7-41" target="WYx9C1buDWOBvDWNYKW7-43">
          <mxGeometry relative="1" as="geometry">
            <mxPoint x="870" y="120" as="sourcePoint" />
            <mxPoint x="920" y="250" as="targetPoint" />
            <Array as="points" />
          </mxGeometry>
        </mxCell>
        <mxCell id="WYx9C1buDWOBvDWNYKW7-43" value="" style="shape=waypoint;sketch=0;size=6;pointerEvents=1;points=[];fillColor=none;resizable=0;rotatable=0;perimeter=centerPerimeter;snapToPoint=1;" vertex="1" parent="1">
          <mxGeometry x="860" y="240" width="20" height="20" as="geometry" />
        </mxCell>
        <mxCell id="WYx9C1buDWOBvDWNYKW7-45" value="" style="endArrow=classic;html=1;rounded=0;entryX=0;entryY=0;entryDx=0;entryDy=0;" edge="1" parent="1" target="TTBIErPZMyxIEzA5yBpW-2">
          <mxGeometry width="50" height="50" relative="1" as="geometry">
            <mxPoint x="870" y="250" as="sourcePoint" />
            <mxPoint x="920" y="200" as="targetPoint" />
            <Array as="points">
              <mxPoint x="870" y="360" />
            </Array>
          </mxGeometry>
        </mxCell>
      </root>
    </mxGraphModel>
  </diagram>
  <diagram id="x3eUwFTdC9yd0hgN9aFn" name="FSM">
    <mxGraphModel grid="1" page="1" gridSize="10" guides="1" tooltips="1" connect="1" arrows="1" fold="1" pageScale="1" pageWidth="1600" pageHeight="1200" math="0" shadow="0">
      <root>
        <mxCell id="0" />
        <mxCell id="1" parent="0" />
        <mxCell id="2wqFv1To8WPR-8jxrH-j-1" style="edgeStyle=orthogonalEdgeStyle;rounded=0;orthogonalLoop=1;jettySize=auto;html=1;exitX=0.5;exitY=1;exitDx=0;exitDy=0;entryX=0.5;entryY=0;entryDx=0;entryDy=0;" edge="1" parent="1" source="2wqFv1To8WPR-8jxrH-j-2" target="2wqFv1To8WPR-8jxrH-j-5">
          <mxGeometry relative="1" as="geometry" />
        </mxCell>
        <mxCell id="EPWGNkqqZtbN5EU26vaC-1" style="edgeStyle=orthogonalEdgeStyle;rounded=0;orthogonalLoop=1;jettySize=auto;html=1;exitX=0.5;exitY=1;exitDx=0;exitDy=0;entryX=0.5;entryY=0;entryDx=0;entryDy=0;" edge="1" parent="1" source="EPWGNkqqZtbN5EU26vaC-2" target="EPWGNkqqZtbN5EU26vaC-6">
          <mxGeometry relative="1" as="geometry" />
        </mxCell>
        <mxCell id="2wqFv1To8WPR-8jxrH-j-2" value="&lt;font style=&quot;font-size: 18px;&quot;&gt;初始&lt;/font&gt;" style="ellipse;whiteSpace=wrap;html=1;aspect=fixed;" vertex="1" parent="1">
          <mxGeometry x="400" y="70" width="80" height="80" as="geometry" />
        </mxCell>
        <mxCell id="EPWGNkqqZtbN5EU26vaC-2" value="&lt;font style=&quot;font-size: 18px;&quot;&gt;初始&lt;/font&gt;" style="ellipse;whiteSpace=wrap;html=1;aspect=fixed;" vertex="1" parent="1">
          <mxGeometry x="400" y="70" width="80" height="80" as="geometry" />
        </mxCell>
        <mxCell id="2wqFv1To8WPR-8jxrH-j-3" style="edgeStyle=orthogonalEdgeStyle;rounded=0;orthogonalLoop=1;jettySize=auto;html=1;exitX=0.5;exitY=1;exitDx=0;exitDy=0;entryX=0.369;entryY=0.025;entryDx=0;entryDy=0;entryPerimeter=0;" edge="1" parent="1" target="2wqFv1To8WPR-8jxrH-j-7">
          <mxGeometry relative="1" as="geometry">
            <mxPoint x="430" y="270" as="sourcePoint" />
            <mxPoint x="430" y="390" as="targetPoint" />
            <Array as="points">
              <mxPoint x="430" y="331" />
            </Array>
          </mxGeometry>
        </mxCell>
        <mxCell id="EPWGNkqqZtbN5EU26vaC-3" style="edgeStyle=orthogonalEdgeStyle;rounded=0;orthogonalLoop=1;jettySize=auto;html=1;exitX=0.5;exitY=1;exitDx=0;exitDy=0;entryX=0.369;entryY=0.025;entryDx=0;entryDy=0;entryPerimeter=0;" edge="1" parent="1" target="EPWGNkqqZtbN5EU26vaC-11">
          <mxGeometry relative="1" as="geometry">
            <mxPoint x="430" y="270" as="sourcePoint" />
            <mxPoint x="430" y="390" as="targetPoint" />
            <Array as="points">
              <mxPoint x="430" y="331" />
            </Array>
          </mxGeometry>
        </mxCell>
        <mxCell id="2wqFv1To8WPR-8jxrH-j-4" style="rounded=0;orthogonalLoop=1;jettySize=auto;html=1;exitX=0;exitY=1;exitDx=0;exitDy=0;entryX=1;entryY=0;entryDx=0;entryDy=0;" edge="1" parent="1" source="2wqFv1To8WPR-8jxrH-j-5" target="2wqFv1To8WPR-8jxrH-j-13">
          <mxGeometry relative="1" as="geometry" />
        </mxCell>
        <mxCell id="0b9Jnv8Tj_xXhU9F1kpY-8" style="rounded=0;orthogonalLoop=1;jettySize=auto;html=1;exitX=0;exitY=1;exitDx=0;exitDy=0;entryX=1;entryY=0;entryDx=0;entryDy=0;" edge="1" parent="1" source="EPWGNkqqZtbN5EU26vaC-6" target="EPWGNkqqZtbN5EU26vaC-16">
          <mxGeometry relative="1" as="geometry" />
        </mxCell>
        <mxCell id="2wqFv1To8WPR-8jxrH-j-5" value="&lt;font style=&quot;font-size: 16px;&quot;&gt;左移&lt;/font&gt;&lt;div&gt;&lt;br&gt;&lt;/div&gt;" style="ellipse;whiteSpace=wrap;html=1;aspect=fixed;" vertex="1" parent="1">
          <mxGeometry x="400" y="190" width="80" height="80" as="geometry" />
        </mxCell>
        <mxCell id="EPWGNkqqZtbN5EU26vaC-6" value="&lt;font style=&quot;font-size: 16px;&quot;&gt;左移&lt;/font&gt;&lt;div&gt;&lt;br&gt;&lt;/div&gt;" style="ellipse;whiteSpace=wrap;html=1;aspect=fixed;" vertex="1" parent="1">
          <mxGeometry x="400" y="190" width="80" height="80" as="geometry" />
        </mxCell>
        <mxCell id="2wqFv1To8WPR-8jxrH-j-6" style="rounded=0;orthogonalLoop=1;jettySize=auto;html=1;exitX=0.956;exitY=0.287;exitDx=0;exitDy=0;entryX=0.267;entryY=0.957;entryDx=0;entryDy=0;exitPerimeter=0;entryPerimeter=0;" edge="1" parent="1" source="2wqFv1To8WPR-8jxrH-j-7" target="2wqFv1To8WPR-8jxrH-j-10">
          <mxGeometry relative="1" as="geometry" />
        </mxCell>
        <mxCell id="EPWGNkqqZtbN5EU26vaC-7" style="rounded=0;orthogonalLoop=1;jettySize=auto;html=1;exitX=0.956;exitY=0.287;exitDx=0;exitDy=0;entryX=0.267;entryY=0.957;entryDx=0;entryDy=0;exitPerimeter=0;entryPerimeter=0;" edge="1" parent="1" source="EPWGNkqqZtbN5EU26vaC-11" target="EPWGNkqqZtbN5EU26vaC-13">
          <mxGeometry relative="1" as="geometry" />
        </mxCell>
        <mxCell id="2wqFv1To8WPR-8jxrH-j-7" value="&lt;font style=&quot;font-size: 16px;&quot;&gt;右移&lt;/font&gt;&lt;div&gt;&lt;font style=&quot;font-size: 16px;&quot;&gt;&lt;br&gt;&lt;/font&gt;&lt;/div&gt;" style="ellipse;whiteSpace=wrap;html=1;aspect=fixed;" vertex="1" parent="1">
          <mxGeometry x="400" y="510" width="80" height="80" as="geometry" />
        </mxCell>
        <mxCell id="EPWGNkqqZtbN5EU26vaC-11" value="&lt;font style=&quot;font-size: 16px;&quot;&gt;右移&lt;/font&gt;&lt;div&gt;&lt;font style=&quot;font-size: 16px;&quot;&gt;&lt;br&gt;&lt;/font&gt;&lt;/div&gt;" style="ellipse;whiteSpace=wrap;html=1;aspect=fixed;" vertex="1" parent="1">
          <mxGeometry x="400" y="510" width="80" height="80" as="geometry" />
        </mxCell>
        <mxCell id="2wqFv1To8WPR-8jxrH-j-8" style="edgeStyle=orthogonalEdgeStyle;rounded=0;orthogonalLoop=1;jettySize=auto;html=1;exitX=0.5;exitY=0;exitDx=0;exitDy=0;entryX=1;entryY=0.5;entryDx=0;entryDy=0;" edge="1" parent="1" source="2wqFv1To8WPR-8jxrH-j-10" target="2wqFv1To8WPR-8jxrH-j-2">
          <mxGeometry relative="1" as="geometry" />
        </mxCell>
        <mxCell id="EPWGNkqqZtbN5EU26vaC-12" style="edgeStyle=orthogonalEdgeStyle;rounded=0;orthogonalLoop=1;jettySize=auto;html=1;exitX=0.5;exitY=0;exitDx=0;exitDy=0;entryX=1;entryY=0.5;entryDx=0;entryDy=0;" edge="1" parent="1" source="EPWGNkqqZtbN5EU26vaC-13" target="EPWGNkqqZtbN5EU26vaC-2">
          <mxGeometry relative="1" as="geometry" />
        </mxCell>
        <mxCell id="2wqFv1To8WPR-8jxrH-j-9" style="rounded=0;orthogonalLoop=1;jettySize=auto;html=1;exitX=0;exitY=1;exitDx=0;exitDy=0;entryX=1;entryY=0;entryDx=0;entryDy=0;" edge="1" parent="1" source="2wqFv1To8WPR-8jxrH-j-10" target="2wqFv1To8WPR-8jxrH-j-7">
          <mxGeometry relative="1" as="geometry" />
        </mxCell>
        <mxCell id="0b9Jnv8Tj_xXhU9F1kpY-11" style="rounded=0;orthogonalLoop=1;jettySize=auto;html=1;exitX=0;exitY=1;exitDx=0;exitDy=0;entryX=1;entryY=0;entryDx=0;entryDy=0;" edge="1" parent="1" source="EPWGNkqqZtbN5EU26vaC-13" target="EPWGNkqqZtbN5EU26vaC-11">
          <mxGeometry relative="1" as="geometry" />
        </mxCell>
        <mxCell id="2wqFv1To8WPR-8jxrH-j-10" value="&lt;font style=&quot;font-size: 18px;&quot;&gt;左邊得分&lt;/font&gt;" style="ellipse;whiteSpace=wrap;html=1;aspect=fixed;" vertex="1" parent="1">
          <mxGeometry x="640" y="350" width="80" height="80" as="geometry" />
        </mxCell>
        <mxCell id="EPWGNkqqZtbN5EU26vaC-13" value="&lt;font style=&quot;font-size: 18px;&quot;&gt;左邊得分&lt;/font&gt;" style="ellipse;whiteSpace=wrap;html=1;aspect=fixed;" vertex="1" parent="1">
          <mxGeometry x="640" y="350" width="80" height="80" as="geometry" />
        </mxCell>
        <mxCell id="2wqFv1To8WPR-8jxrH-j-11" style="edgeStyle=orthogonalEdgeStyle;rounded=0;orthogonalLoop=1;jettySize=auto;html=1;exitX=0.5;exitY=0;exitDx=0;exitDy=0;entryX=0;entryY=0.5;entryDx=0;entryDy=0;" edge="1" parent="1" source="2wqFv1To8WPR-8jxrH-j-13" target="2wqFv1To8WPR-8jxrH-j-2">
          <mxGeometry relative="1" as="geometry" />
        </mxCell>
        <mxCell id="2wqFv1To8WPR-8jxrH-j-12" value="右邊滿分" style="edgeLabel;html=1;align=center;verticalAlign=middle;resizable=0;points=[];fontSize=18;" vertex="1" connectable="0" parent="2wqFv1To8WPR-8jxrH-j-11">
          <mxGeometry x="-0.4445" relative="1" as="geometry">
            <mxPoint as="offset" />
          </mxGeometry>
        </mxCell>
        <mxCell id="EPWGNkqqZtbN5EU26vaC-14" style="edgeStyle=orthogonalEdgeStyle;rounded=0;orthogonalLoop=1;jettySize=auto;html=1;exitX=0.5;exitY=0;exitDx=0;exitDy=0;entryX=0;entryY=0.5;entryDx=0;entryDy=0;" edge="1" parent="1" source="EPWGNkqqZtbN5EU26vaC-16" target="EPWGNkqqZtbN5EU26vaC-2">
          <mxGeometry relative="1" as="geometry" />
        </mxCell>
        <mxCell id="EPWGNkqqZtbN5EU26vaC-15" value="右邊滿分" style="edgeLabel;html=1;align=center;verticalAlign=middle;resizable=0;points=[];fontSize=18;" connectable="0" vertex="1" parent="EPWGNkqqZtbN5EU26vaC-14">
          <mxGeometry x="-0.4445" relative="1" as="geometry">
            <mxPoint as="offset" />
          </mxGeometry>
        </mxCell>
        <mxCell id="2wqFv1To8WPR-8jxrH-j-13" value="&lt;font style=&quot;font-size: 18px;&quot;&gt;右邊得分&lt;/font&gt;" style="ellipse;whiteSpace=wrap;html=1;aspect=fixed;" vertex="1" parent="1">
          <mxGeometry x="160" y="350" width="80" height="80" as="geometry" />
        </mxCell>
        <mxCell id="EPWGNkqqZtbN5EU26vaC-16" value="&lt;font style=&quot;font-size: 18px;&quot;&gt;右邊得分&lt;/font&gt;" style="ellipse;whiteSpace=wrap;html=1;aspect=fixed;" vertex="1" parent="1">
          <mxGeometry x="160" y="350" width="80" height="80" as="geometry" />
        </mxCell>
        <mxCell id="2wqFv1To8WPR-8jxrH-j-14" value="&lt;span style=&quot;font-size: 18px; background-color: rgb(255, 255, 255);&quot;&gt;沒打/提早打&lt;/span&gt;" style="text;html=1;align=center;verticalAlign=middle;resizable=0;points=[];autosize=1;strokeColor=none;fillColor=none;rotation=-30;" vertex="1" parent="1">
          <mxGeometry x="250" y="280" width="120" height="40" as="geometry" />
        </mxCell>
        <mxCell id="EPWGNkqqZtbN5EU26vaC-17" value="&lt;span style=&quot;font-size: 18px; background-color: rgb(255, 255, 255);&quot;&gt;沒打/提早打&lt;/span&gt;" style="text;html=1;align=center;verticalAlign=middle;resizable=0;points=[];autosize=1;strokeColor=none;fillColor=none;rotation=-30;" vertex="1" parent="1">
          <mxGeometry x="250" y="280" width="120" height="40" as="geometry" />
        </mxCell>
        <mxCell id="2wqFv1To8WPR-8jxrH-j-15" value="&lt;span style=&quot;font-size: 18px; background-color: rgb(255, 255, 255);&quot;&gt;沒打/提早打&lt;/span&gt;" style="text;html=1;align=center;verticalAlign=middle;resizable=0;points=[];autosize=1;strokeColor=none;fillColor=none;rotation=-30;" vertex="1" parent="1">
          <mxGeometry x="520" y="470" width="120" height="40" as="geometry" />
        </mxCell>
        <mxCell id="EPWGNkqqZtbN5EU26vaC-18" value="&lt;span style=&quot;font-size: 18px; background-color: rgb(255, 255, 255);&quot;&gt;沒打/提早打&lt;/span&gt;" style="text;html=1;align=center;verticalAlign=middle;resizable=0;points=[];autosize=1;strokeColor=none;fillColor=none;rotation=-30;" vertex="1" parent="1">
          <mxGeometry x="520" y="470" width="120" height="40" as="geometry" />
        </mxCell>
        <mxCell id="2wqFv1To8WPR-8jxrH-j-16" value="&lt;span style=&quot;font-size: 16px; text-wrap: wrap;&quot;&gt;右邊打擊&lt;/span&gt;" style="text;html=1;align=center;verticalAlign=middle;resizable=0;points=[];autosize=1;strokeColor=none;fillColor=none;" vertex="1" parent="1">
          <mxGeometry x="420" y="388" width="90" height="30" as="geometry" />
        </mxCell>
        <mxCell id="EPWGNkqqZtbN5EU26vaC-19" value="&lt;span style=&quot;font-size: 16px; text-wrap: wrap;&quot;&gt;右邊打擊&lt;/span&gt;" style="text;html=1;align=center;verticalAlign=middle;resizable=0;points=[];autosize=1;strokeColor=none;fillColor=none;" vertex="1" parent="1">
          <mxGeometry x="420" y="388" width="90" height="30" as="geometry" />
        </mxCell>
        <mxCell id="2wqFv1To8WPR-8jxrH-j-17" value="&lt;span style=&quot;font-size: 16px; text-wrap: wrap;&quot;&gt;左邊打擊&lt;/span&gt;" style="text;html=1;align=center;verticalAlign=middle;resizable=0;points=[];autosize=1;strokeColor=none;fillColor=none;" vertex="1" parent="1">
          <mxGeometry x="370" y="388" width="90" height="30" as="geometry" />
        </mxCell>
        <mxCell id="EPWGNkqqZtbN5EU26vaC-20" value="&lt;span style=&quot;font-size: 16px; text-wrap: wrap;&quot;&gt;左邊打擊&lt;/span&gt;" style="text;html=1;align=center;verticalAlign=middle;resizable=0;points=[];autosize=1;strokeColor=none;fillColor=none;" vertex="1" parent="1">
          <mxGeometry x="370" y="388" width="90" height="30" as="geometry" />
        </mxCell>
        <mxCell id="2wqFv1To8WPR-8jxrH-j-18" value="左邊滿分" style="edgeLabel;html=1;align=center;verticalAlign=middle;resizable=0;points=[];fontSize=18;" vertex="1" connectable="0" parent="1">
          <mxGeometry x="230" y="230" as="geometry">
            <mxPoint x="453" y="-7" as="offset" />
          </mxGeometry>
        </mxCell>
        <mxCell id="EPWGNkqqZtbN5EU26vaC-22" value="左邊滿分" style="edgeLabel;html=1;align=center;verticalAlign=middle;resizable=0;points=[];fontSize=18;" connectable="0" vertex="1" parent="1">
          <mxGeometry x="230" y="230" as="geometry">
            <mxPoint x="453" y="-7" as="offset" />
          </mxGeometry>
        </mxCell>
        <mxCell id="2wqFv1To8WPR-8jxrH-j-19" value="000" style="text;html=1;align=center;verticalAlign=middle;resizable=0;points=[];autosize=1;strokeColor=none;fillColor=none;" vertex="1" parent="1">
          <mxGeometry x="420" y="70" width="40" height="30" as="geometry" />
        </mxCell>
        <mxCell id="0b9Jnv8Tj_xXhU9F1kpY-1" value="000" style="text;html=1;align=center;verticalAlign=middle;resizable=0;points=[];autosize=1;strokeColor=none;fillColor=none;" vertex="1" parent="1">
          <mxGeometry x="420" y="70" width="40" height="30" as="geometry" />
        </mxCell>
        <mxCell id="2wqFv1To8WPR-8jxrH-j-20" value="001" style="text;html=1;align=center;verticalAlign=middle;resizable=0;points=[];autosize=1;strokeColor=none;fillColor=none;" vertex="1" parent="1">
          <mxGeometry x="420" y="190" width="40" height="30" as="geometry" />
        </mxCell>
        <mxCell id="0b9Jnv8Tj_xXhU9F1kpY-2" value="001" style="text;html=1;align=center;verticalAlign=middle;resizable=0;points=[];autosize=1;strokeColor=none;fillColor=none;" vertex="1" parent="1">
          <mxGeometry x="420" y="190" width="40" height="30" as="geometry" />
        </mxCell>
        <mxCell id="2wqFv1To8WPR-8jxrH-j-21" value="010" style="text;html=1;align=center;verticalAlign=middle;resizable=0;points=[];autosize=1;strokeColor=none;fillColor=none;" vertex="1" parent="1">
          <mxGeometry x="420" y="510" width="40" height="30" as="geometry" />
        </mxCell>
        <mxCell id="0b9Jnv8Tj_xXhU9F1kpY-3" value="010" style="text;html=1;align=center;verticalAlign=middle;resizable=0;points=[];autosize=1;strokeColor=none;fillColor=none;" vertex="1" parent="1">
          <mxGeometry x="420" y="510" width="40" height="30" as="geometry" />
        </mxCell>
        <mxCell id="2wqFv1To8WPR-8jxrH-j-22" value="011" style="text;html=1;align=center;verticalAlign=middle;resizable=0;points=[];autosize=1;strokeColor=none;fillColor=none;" vertex="1" parent="1">
          <mxGeometry x="660" y="350" width="40" height="30" as="geometry" />
        </mxCell>
        <mxCell id="0b9Jnv8Tj_xXhU9F1kpY-4" value="011" style="text;html=1;align=center;verticalAlign=middle;resizable=0;points=[];autosize=1;strokeColor=none;fillColor=none;" vertex="1" parent="1">
          <mxGeometry x="660" y="350" width="40" height="30" as="geometry" />
        </mxCell>
        <mxCell id="2wqFv1To8WPR-8jxrH-j-23" value="100" style="text;html=1;align=center;verticalAlign=middle;resizable=0;points=[];autosize=1;strokeColor=none;fillColor=none;" vertex="1" parent="1">
          <mxGeometry x="180" y="350" width="40" height="30" as="geometry" />
        </mxCell>
        <mxCell id="0b9Jnv8Tj_xXhU9F1kpY-5" value="100" style="text;html=1;align=center;verticalAlign=middle;resizable=0;points=[];autosize=1;strokeColor=none;fillColor=none;" vertex="1" parent="1">
          <mxGeometry x="180" y="350" width="40" height="30" as="geometry" />
        </mxCell>
        <mxCell id="2wqFv1To8WPR-8jxrH-j-24" value="右邊發球" style="text;html=1;align=center;verticalAlign=middle;resizable=0;points=[];autosize=1;strokeColor=none;fillColor=none;" vertex="1" parent="1">
          <mxGeometry x="440" y="148" width="70" height="30" as="geometry" />
        </mxCell>
        <mxCell id="0b9Jnv8Tj_xXhU9F1kpY-6" value="右邊發球" style="text;html=1;align=center;verticalAlign=middle;resizable=0;points=[];autosize=1;strokeColor=none;fillColor=none;" vertex="1" parent="1">
          <mxGeometry x="440" y="148" width="70" height="30" as="geometry" />
        </mxCell>
        <mxCell id="2wqFv1To8WPR-8jxrH-j-25" style="rounded=0;orthogonalLoop=1;jettySize=auto;html=1;exitX=0.94;exitY=0.265;exitDx=0;exitDy=0;entryX=0.281;entryY=0.943;entryDx=0;entryDy=0;entryPerimeter=0;exitPerimeter=0;" edge="1" parent="1" source="2wqFv1To8WPR-8jxrH-j-13" target="2wqFv1To8WPR-8jxrH-j-5">
          <mxGeometry relative="1" as="geometry" />
        </mxCell>
        <mxCell id="0b9Jnv8Tj_xXhU9F1kpY-7" style="rounded=0;orthogonalLoop=1;jettySize=auto;html=1;exitX=0.94;exitY=0.265;exitDx=0;exitDy=0;entryX=0.281;entryY=0.943;entryDx=0;entryDy=0;entryPerimeter=0;exitPerimeter=0;" edge="1" parent="1" source="EPWGNkqqZtbN5EU26vaC-16" target="EPWGNkqqZtbN5EU26vaC-6">
          <mxGeometry relative="1" as="geometry" />
        </mxCell>
        <mxCell id="2wqFv1To8WPR-8jxrH-j-26" value="&lt;span style=&quot;font-size: 18px; background-color: rgb(255, 255, 255);&quot;&gt;右邊發球&lt;/span&gt;" style="text;html=1;align=center;verticalAlign=middle;resizable=0;points=[];autosize=1;strokeColor=none;fillColor=none;rotation=-30;" vertex="1" parent="1">
          <mxGeometry x="270" y="320" width="100" height="40" as="geometry" />
        </mxCell>
        <mxCell id="0b9Jnv8Tj_xXhU9F1kpY-9" value="&lt;span style=&quot;font-size: 18px; background-color: rgb(255, 255, 255);&quot;&gt;右邊發球&lt;/span&gt;" style="text;html=1;align=center;verticalAlign=middle;resizable=0;points=[];autosize=1;strokeColor=none;fillColor=none;rotation=-30;" vertex="1" parent="1">
          <mxGeometry x="270" y="320" width="100" height="40" as="geometry" />
        </mxCell>
        <mxCell id="2wqFv1To8WPR-8jxrH-j-27" value="&lt;span style=&quot;font-size: 18px; background-color: rgb(255, 255, 255);&quot;&gt;左邊發球&lt;/span&gt;" style="text;html=1;align=center;verticalAlign=middle;resizable=0;points=[];autosize=1;strokeColor=none;fillColor=none;rotation=-30;" vertex="1" parent="1">
          <mxGeometry x="500" y="440" width="100" height="40" as="geometry" />
        </mxCell>
        <mxCell id="0b9Jnv8Tj_xXhU9F1kpY-10" value="&lt;span style=&quot;font-size: 18px; background-color: rgb(255, 255, 255);&quot;&gt;左邊發球&lt;/span&gt;" style="text;html=1;align=center;verticalAlign=middle;resizable=0;points=[];autosize=1;strokeColor=none;fillColor=none;rotation=-30;" vertex="1" parent="1">
          <mxGeometry x="500" y="440" width="100" height="40" as="geometry" />
        </mxCell>
        <mxCell id="2wqFv1To8WPR-8jxrH-j-28" style="edgeStyle=orthogonalEdgeStyle;rounded=0;orthogonalLoop=1;jettySize=auto;html=1;entryX=0.6;entryY=0.98;entryDx=0;entryDy=0;entryPerimeter=0;" edge="1" parent="1" target="2wqFv1To8WPR-8jxrH-j-5">
          <mxGeometry relative="1" as="geometry">
            <mxPoint x="448" y="510" as="sourcePoint" />
            <mxPoint x="448.31999999999994" y="270" as="targetPoint" />
          </mxGeometry>
        </mxCell>
        <mxCell id="0b9Jnv8Tj_xXhU9F1kpY-12" style="edgeStyle=orthogonalEdgeStyle;rounded=0;orthogonalLoop=1;jettySize=auto;html=1;entryX=0.6;entryY=0.98;entryDx=0;entryDy=0;entryPerimeter=0;" edge="1" parent="1" target="EPWGNkqqZtbN5EU26vaC-6">
          <mxGeometry relative="1" as="geometry">
            <mxPoint x="448" y="510" as="sourcePoint" />
            <mxPoint x="448.31999999999994" y="270" as="targetPoint" />
          </mxGeometry>
        </mxCell>
      </root>
    </mxGraphModel>
  </diagram>
</mxfile>
